<?xml version="1.0" standalone="no"?>
<!DOCTYPE svg PUBLIC "-//W3C//DTD SVG 20010904//EN"
 "http://www.w3.org/TR/2001/REC-SVG-20010904/DTD/svg10.dtd">
<svg version="1.0" xmlns="http://www.w3.org/2000/svg"
 width="300.000000pt" height="300.000000pt" viewBox="0 0 300.000000 300.000000"
 preserveAspectRatio="xMidYMid meet">
<metadata>
Created by potrace 1.11, written by Peter Selinger 2001-2013
</metadata>
<g transform="translate(0.000000,300.000000) scale(0.100000,-0.100000)"
fill="#000000" stroke="none">
<path d="M949 2886 c-184 -54 -333 -179 -412 -348 -42 -89 -57 -170 -53 -283
6 -171 59 -289 185 -416 108 -108 238 -171 387 -185 l61 -6 -2 173 c-1 96 -3
177 -4 180 0 3 -24 9 -52 12 -87 11 -165 69 -205 153 -13 27 -19 61 -19 114 0
64 4 82 27 121 87 147 250 180 516 103 392 -113 679 -427 756 -829 24 -124 16
-314 -18 -440 -30 -110 -82 -225 -147 -325 -55 -84 -195 -222 -286 -283 -239
-159 -574 -228 -710 -147 -161 97 -188 296 -57 427 41 40 92 64 154 72 l45 6
1 177 c1 123 -2 178 -10 179 -119 11 -311 -65 -417 -164 -149 -139 -213 -294
-205 -491 7 -158 62 -288 170 -400 137 -142 299 -206 508 -201 89 3 141 10
277 39 58 13 192 62 271 99 163 78 283 166 423 310 53 55 97 103 97 107 0 4 9
18 21 31 27 31 107 168 143 244 29 62 82 216 91 263 6 33 13 68 21 107 4 17 8
102 9 191 2 126 -2 184 -17 265 -112 595 -574 1045 -1178 1148 -150 26 -275
25 -371 -3z"/>
</g>
</svg>
